<svg viewBox="0 0 390 844" xmlns="http://www.w3.org/2000/svg">
  <defs>
    <filter id="cardShadow" x="-20%" y="-20%" width="140%" height="140%">
      <feDropShadow dx="0" dy="6" stdDeviation="9" flood-color="#3D352C" flood-opacity="0.06"/>
    </filter>
    <filter id="softShadow" x="-30%" y="-30%" width="160%" height="160%">
      <feDropShadow dx="0" dy="3" stdDeviation="5" flood-color="#3D352C" flood-opacity="0.05"/>
    </filter>
    <clipPath id="screenClip"><rect x="0" y="0" width="390" height="844" rx="0"/></clipPath>
  </defs>

  <g clip-path="url(#screenClip)" font-family="-apple-system, system-ui, 'Helvetica Neue', sans-serif">
    <rect x="0" y="0" width="390" height="844" fill="#FFF9F0"/>

    <text x="24" y="29" font-size="13" font-weight="700" fill="#3D352C">9:41</text>
    <g fill="#3D352C">
      <rect x="330" y="18" width="3" height="9" rx="1"/>
      <rect x="335" y="15" width="3" height="12" rx="1"/>
      <rect x="340" y="12" width="3" height="15" rx="1"/>
      <rect x="345" y="9" width="3" height="18" rx="1"/>
      <path d="M353 16 a8 8 0 0 1 13 0" fill="none" stroke="#3D352C" stroke-width="2" stroke-linecap="round"/>
      <path d="M356 19 a4 4 0 0 1 7 0" fill="none" stroke="#3D352C" stroke-width="2" stroke-linecap="round"/>
      <circle cx="359.5" cy="22.5" r="1.5"/>
      <rect x="370" y="13" width="18" height="10" rx="2.5" fill="none" stroke="#3D352C" stroke-width="1.5"/>
      <rect x="372" y="15" width="12" height="6" rx="1" fill="#3D352C"/>
      <rect x="388.5" y="16" width="1.5" height="4" rx="0.75"/>
    </g>

    <text x="20" y="84" font-size="28" font-weight="700" fill="#3D352C">성장일기</text>
    <text x="20" y="106" font-size="15" fill="#6F6557">짧은 메모를 따뜻한 일기로</text>

    <g filter="url(#softShadow)">
      <rect x="290" y="64" width="80" height="34" rx="17" fill="#FFD66B"/>
    </g>
    <g fill="#A87C2F">
      <path d="M305 76 l2 4 4 1 -4 1 -2 4 -2 -4 -4 -1 4 -1 z"/>
    </g>
    <text x="316" y="86" font-size="13" font-weight="700" fill="#A87C2F">일기 쓰기</text>

    <g filter="url(#cardShadow)">
      <rect x="20" y="120" width="350" height="118" rx="22" fill="#FFFFFF" stroke="#EFE5D6" stroke-width="1"/>
    </g>
    <rect x="20" y="120" width="350" height="118" rx="22" fill="#FFF9F0" opacity="0.5"/>
    <rect x="20" y="120" width="350" height="118" rx="22" fill="none" stroke="#EFE5D6" stroke-width="1"/>
    <circle cx="58" cy="166" r="22" fill="#FFE7A3"/>
    <text x="58" y="174" font-size="22" text-anchor="middle">📖</text>
    <text x="92" y="158" font-size="17" font-weight="700" fill="#3D352C">첫 일기를 남겨볼까요?</text>
    <text x="92" y="180" font-size="13" fill="#6F6557">오늘 있었던 순간을 한두 줄 적으면,</text>
    <text x="92" y="197" font-size="13" fill="#6F6557">AI가 다정한 성장일기로 정리해 드려요.</text>
    <g>
      <rect x="92" y="208" width="118" height="22" rx="11" fill="#FFD66B"/>
      <text x="151" y="223" font-size="12" font-weight="700" fill="#A87C2F" text-anchor="middle">오늘 일기 쓰기</text>
    </g>

    <text x="20" y="270" font-size="13" fill="#9A8B7B" letter-spacing="0.4">최근 일기 · 2026년 6월</text>

    <g filter="url(#cardShadow)">
      <rect x="20" y="282" width="350" height="166" rx="20" fill="#FFFFFF" stroke="#EFE5D6" stroke-width="1"/>
    </g>
    <text x="36" y="312" font-size="16" font-weight="700" fill="#3D352C">어제</text>
    <text x="36" y="329" font-size="11" fill="#9A8B7B">6월 19일 · 하준 26개월</text>
    <g>
      <rect x="276" y="296" width="78" height="24" rx="12" fill="#FFE7A3"/>
      <path d="M291 305 l1.6 3.2 3.2 0.8 -3.2 0.8 -1.6 3.2 -1.6 -3.2 -3.2 -0.8 3.2 -0.8 z" fill="#A87C2F"/>
      <text x="301" y="312" font-size="11" font-weight="700" fill="#A87C2F">AI 정리</text>
    </g>
    <line x1="36" y1="343" x2="354" y2="343" stroke="#EFE5D6" stroke-width="1"/>
    <text font-size="13.5" fill="#3D352C">
      <tspan x="36" y="364">오늘은 하준이가 소파를 꼭 잡고 엄마 손을 놓지</tspan>
      <tspan x="36" y="383">않으면서 정말 조심스럽게 두 발을 떼었어요. 작은</tspan>
      <tspan x="36" y="402">흔들림마다 웃음이 나오던 순간들이 소중했고, 저도</tspan>
      <tspan x="36" y="421">함께 환호성을 질렀어요. 하준이의 세상이 한 걸음</tspan>
      <tspan x="36" y="440" fill="#6F6557">더 넓어진 것 같아 너무 자랑스러워요. ﹒﹒﹒</tspan>
    </text>

    <g filter="url(#cardShadow)">
      <rect x="20" y="460" width="350" height="146" rx="20" fill="#FFFFFF" stroke="#EFE5D6" stroke-width="1"/>
    </g>
    <text x="36" y="490" font-size="16" font-weight="700" fill="#3D352C">2일 전</text>
    <text x="36" y="507" font-size="11" fill="#9A8B7B">6월 18일 · 하준 26개월</text>
    <g>
      <rect x="276" y="474" width="78" height="24" rx="12" fill="#FFE7A3"/>
      <path d="M291 483 l1.6 3.2 3.2 0.8 -3.2 0.8 -1.6 3.2 -1.6 -3.2 -3.2 -0.8 3.2 -0.8 z" fill="#A87C2F"/>
      <text x="301" y="490" font-size="11" font-weight="700" fill="#A87C2F">AI 정리</text>
    </g>
    <line x1="36" y1="521" x2="354" y2="521" stroke="#EFE5D6" stroke-width="1"/>
    <text font-size="13.5" fill="#3D352C">
      <tspan x="36" y="542">오늘 하준이는 처음으로 "엄마"라고 발음을 내보았</tspan>
      <tspan x="36" y="561">어요. 정확하지 않은 소리지만 정말 간절했어요. 밥을</tspan>
      <tspan x="36" y="580">먹으며 계속 "엠마, 엠마"라고 부르니 제 가슴이 뭉클</tspan>
      <tspan x="36" y="599" fill="#6F6557">했어요. 이 순간을 오래 기억하고 싶어요. ﹒﹒﹒</tspan>
    </text>

    <g filter="url(#cardShadow)">
      <rect x="20" y="618" width="350" height="120" rx="20" fill="#FFFFFF" stroke="#EFE5D6" stroke-width="1"/>
    </g>
    <text x="36" y="648" font-size="16" font-weight="700" fill="#3D352C">3일 전</text>
    <text x="36" y="665" font-size="11" fill="#9A8B7B">6월 17일 · 하준 26개월</text>
    <g>
      <rect x="276" y="632" width="78" height="24" rx="12" fill="#FFE7A3"/>
      <path d="M291 641 l1.6 3.2 3.2 0.8 -3.2 0.8 -1.6 3.2 -1.6 -3.2 -3.2 -0.8 3.2 -0.8 z" fill="#A87C2F"/>
      <text x="301" y="648" font-size="11" font-weight="700" fill="#A87C2F">AI 정리</text>
    </g>
    <line x1="36" y1="679" x2="354" y2="679" stroke="#EFE5D6" stroke-width="1"/>
    <text font-size="13.5" fill="#3D352C">
      <tspan x="36" y="700">새로운 이유식을 처음 시도했는데 손가락을 쪽쪽 빨며</tspan>
      <tspan x="36" y="719" fill="#6F6557">맛있다는 표현을 했어요. 다양한 음식을 즐기는 모습이 ﹒﹒﹒</tspan>
    </text>

    <rect x="0" y="764" width="390" height="80" fill="#FFFFFF"/>
    <line x1="0" y1="764" x2="390" y2="764" stroke="#EFE5D6" stroke-width="1"/>

    <g>
      <path d="M39 786 l11 -9 11 9 v13 a1 1 0 0 1 -1 1 h-20 a1 1 0 0 1 -1 -1 z" fill="none" stroke="#9A8B7B" stroke-width="1.8" stroke-linejoin="round"/>
      <text x="50" y="818" font-size="11" fill="#9A8B7B" text-anchor="middle">홈</text>
    </g>

    <g>
      <rect x="98" y="780" width="44" height="22" rx="11" fill="#FFE7A3"/>
      <g stroke="#A87C2F" stroke-width="1.8" fill="none" stroke-linejoin="round" stroke-linecap="round">
        <path d="M113 786 h11 a2 2 0 0 1 2 2 v8 a2 2 0 0 1 -2 2 h-11 z"/>
        <path d="M113 786 a2 2 0 0 0 -2 2 v8 a2 2 0 0 0 2 2"/>
        <line x1="116" y1="791" x2="122" y2="791"/>
        <line x1="116" y1="795" x2="121" y2="795"/>
      </g>
      <text x="120" y="818" font-size="11" font-weight="700" fill="#A87C2F" text-anchor="middle">일기</text>
    </g>

    <g>
      <rect x="180" y="781" width="30" height="22" rx="5" fill="none" stroke="#9A8B7B" stroke-width="1.8"/>
      <circle cx="189" cy="789" r="2.2" fill="none" stroke="#9A8B7B" stroke-width="1.8"/>
      <path d="M183 803 l8 -7 6 5 4 -3 4 5" fill="none" stroke="#9A8B7B" stroke-width="1.8" stroke-linejoin="round" stroke-linecap="round"/>
      <text x="195" y="818" font-size="11" fill="#9A8B7B" text-anchor="middle">사진</text>
    </g>

    <g>
      <g stroke="#9A8B7B" stroke-width="1.8" fill="none" stroke-linecap="round" stroke-linejoin="round">
        <rect x="261" y="780" width="18" height="22" rx="3"/>
        <line x1="265" y1="787" x2="275" y2="787"/>
        <line x1="265" y1="791" x2="275" y2="791"/>
        <line x1="265" y1="795" x2="271" y2="795"/>
      </g>
      <text x="270" y="818" font-size="11" fill="#9A8B7B" text-anchor="middle">기록</text>
    </g>

    <g>
      <circle cx="334" cy="785" r="3.4" fill="none" stroke="#9A8B7B" stroke-width="1.8"/>
      <circle cx="345" cy="787" r="2.6" fill="none" stroke="#9A8B7B" stroke-width="1.8"/>
      <path d="M327 801 a7 7 0 0 1 14 0" fill="none" stroke="#9A8B7B" stroke-width="1.8" stroke-linecap="round"/>
      <path d="M342 800 a6 6 0 0 1 9 1" fill="none" stroke="#9A8B7B" stroke-width="1.8" stroke-linecap="round"/>
      <text x="338" y="818" font-size="11" fill="#9A8B7B" text-anchor="middle">가족</text>
    </g>
  </g>
</svg>
