<svg viewBox="0 0 390 844" xmlns="http://www.w3.org/2000/svg">
  <defs>
    <filter id="softShadow" x="-20%" y="-20%" width="140%" height="140%">
      <feDropShadow dx="0" dy="3" stdDeviation="6" flood-color="#9A8B7B" flood-opacity="0.14"/>
    </filter>
    <filter id="tinyShadow" x="-20%" y="-20%" width="140%" height="140%">
      <feDropShadow dx="0" dy="1.5" stdDeviation="3" flood-color="#9A8B7B" flood-opacity="0.12"/>
    </filter>
    <clipPath id="chartClip"><rect x="34" y="430" width="322" height="150" rx="6"/></clipPath>
    <clipPath id="screenClip"><rect x="0" y="0" width="390" height="844" rx="0"/></clipPath>
  </defs>

  <g clip-path="url(#screenClip)">
  <rect x="0" y="0" width="390" height="844" fill="#FFF9F0"/>

  <text x="20" y="29" font-family="system-ui, -apple-system, sans-serif" font-size="13" font-weight="700" fill="#3D352C">9:41</text>
  <g fill="#3D352C">
    <rect x="333" y="17" width="2.5" height="8" rx="1"/>
    <rect x="337.5" y="14.5" width="2.5" height="10.5" rx="1"/>
    <rect x="342" y="12" width="2.5" height="13" rx="1"/>
    <rect x="346.5" y="9.5" width="2.5" height="15.5" rx="1"/>
    <path d="M353 18.5 a6 6 0 0 1 11.5 0 l-1.8 1.1 a4 4 0 0 0 -7.9 0 z" />
    <path d="M356.2 21 a3 3 0 0 1 5.1 0 l-2.55 2.4 z"/>
    <rect x="368" y="11" width="20" height="11" rx="3" fill="none" stroke="#3D352C" stroke-width="1.3"/>
    <rect x="389.2" y="14" width="1.6" height="5" rx="0.8"/>
    <rect x="369.8" y="12.8" width="14.5" height="7.4" rx="1.5"/>
  </g>

  <text x="20" y="74" font-family="system-ui, -apple-system, sans-serif" font-size="27" font-weight="700" fill="#3D352C">성장 기록</text>
  <g transform="translate(243,52)">
    <rect x="0" y="0" width="58" height="30" rx="15" fill="#FFFFFF" stroke="#EFE5D6" stroke-width="1"/>
    <text x="13" y="20" font-family="system-ui, sans-serif" font-size="13" fill="#6F6557">📤</text>
    <text x="29" y="20" font-family="system-ui, sans-serif" font-size="12.5" font-weight="600" fill="#6F6557">공유</text>
  </g>
  <g transform="translate(307,52)">
    <rect x="0" y="0" width="63" height="30" rx="15" fill="#FFD66B"/>
    <path d="M14 15 h13 M20.5 8.5 v13" stroke="#A87C2F" stroke-width="2.2" stroke-linecap="round"/>
    <text x="30" y="20" font-family="system-ui, sans-serif" font-size="12.5" font-weight="700" fill="#A87C2F">기록 추가</text>
  </g>

  <g transform="translate(20,92)">
    <circle cx="17" cy="17" r="17" fill="#CFEBDD"/>
    <text x="17" y="22" font-family="system-ui, sans-serif" font-size="16" text-anchor="middle">🌱</text>
    <text x="44" y="15" font-family="system-ui, sans-serif" font-size="15.5" font-weight="700" fill="#3D352C">하준 · 생후 26개월</text>
    <text x="44" y="31" font-family="system-ui, sans-serif" font-size="12" fill="#9A8B7B">남아 · 2024.04.02 · 기준 2026.06.21</text>
  </g>

  <g transform="translate(20,140)">
    <rect x="0" y="0" width="350" height="42" rx="14" fill="#F3E9DA"/>
    <rect x="4" y="4" width="113.3" height="34" rx="11" fill="#FFD66B" filter="url(#tinyShadow)"/>
    <text x="60.6" y="26" font-family="system-ui, sans-serif" font-size="14.5" font-weight="700" fill="#A87C2F" text-anchor="middle">키</text>
    <text x="174.3" y="26" font-family="system-ui, sans-serif" font-size="14" font-weight="600" fill="#6F6557" text-anchor="middle">몸무게</text>
    <text x="289.3" y="26" font-family="system-ui, sans-serif" font-size="13.5" font-weight="600" fill="#6F6557" text-anchor="middle">머리둘레</text>
  </g>

  <g transform="translate(20,196)">
    <rect x="0" y="0" width="112" height="92" rx="18" fill="#FFFFFF" stroke="#EFE5D6" stroke-width="1" filter="url(#softShadow)"/>
    <rect x="0" y="0" width="112" height="4" rx="2" fill="#FFD66B"/>
    <text x="14" y="26" font-family="system-ui, sans-serif" font-size="13" font-weight="600" fill="#6F6557">키</text>
    <text x="14" y="55" font-family="system-ui, sans-serif" font-size="24" font-weight="700" fill="#3D352C">88.2<tspan font-size="13" font-weight="600" fill="#9A8B7B">cm</tspan></text>
    <text x="14" y="76" font-family="system-ui, sans-serif" font-size="10.5" fill="#9A8B7B">최근 측정</text>
    <text x="14" y="88" font-family="system-ui, sans-serif" font-size="10.5" fill="#9A8B7B">2026-06-15</text>

    <rect x="119" y="0" width="112" height="92" rx="18" fill="#FFFFFF" stroke="#EFE5D6" stroke-width="1" filter="url(#softShadow)"/>
    <rect x="119" y="0" width="112" height="4" rx="2" fill="#9FD8BE"/>
    <text x="133" y="26" font-family="system-ui, sans-serif" font-size="13" font-weight="600" fill="#6F6557">몸무게</text>
    <text x="133" y="55" font-family="system-ui, sans-serif" font-size="24" font-weight="700" fill="#3D352C">12.6<tspan font-size="13" font-weight="600" fill="#9A8B7B">kg</tspan></text>
    <text x="133" y="76" font-family="system-ui, sans-serif" font-size="10.5" fill="#9A8B7B">최근 측정</text>
    <text x="133" y="88" font-family="system-ui, sans-serif" font-size="10.5" fill="#9A8B7B">2026-06-15</text>

    <rect x="238" y="0" width="112" height="92" rx="18" fill="#FFFFFF" stroke="#EFE5D6" stroke-width="1" filter="url(#softShadow)"/>
    <rect x="238" y="0" width="112" height="4" rx="2" fill="#E8D9C3"/>
    <text x="252" y="26" font-family="system-ui, sans-serif" font-size="13" font-weight="600" fill="#6F6557">머리둘레</text>
    <text x="252" y="55" font-family="system-ui, sans-serif" font-size="24" font-weight="700" fill="#3D352C">48.6<tspan font-size="13" font-weight="600" fill="#9A8B7B">cm</tspan></text>
    <text x="252" y="80" font-family="system-ui, sans-serif" font-size="10.5" fill="#9A8B7B">아직 기록이</text>
    <text x="252" y="92" font-family="system-ui, sans-serif" font-size="10.5" fill="#9A8B7B">없어요</text>
  </g>

  <g transform="translate(20,300)">
    <rect x="0" y="0" width="350" height="296" rx="22" fill="#FFFFFF" stroke="#EFE5D6" stroke-width="1" filter="url(#softShadow)"/>

    <text x="18" y="30" font-family="system-ui, sans-serif" font-size="16.5" font-weight="700" fill="#3D352C">또래 곡선 (3·50·97%)</text>

    <g transform="translate(18,44)" font-family="system-ui, sans-serif" font-size="11.5">
      <circle cx="5" cy="7" r="4.5" fill="#9FD8BE"/>
      <text x="14" y="11" fill="#6F6557">또래 곡선</text>
      <circle cx="86" cy="7" r="4.5" fill="#FFD66B"/>
      <text x="95" y="11" fill="#6F6557">우리 아이</text>
      <text x="178" y="11" fill="#9A8B7B">참고용</text>
    </g>

    <g clip-path="url(#chartClip)" transform="translate(-20,-300)">
      <rect x="34" y="430" width="322" height="150" fill="#FFFFFF"/>

      <line x1="34" y1="442" x2="356" y2="442" stroke="#F3E9DA" stroke-width="1"/>
      <line x1="34" y1="473" x2="356" y2="473" stroke="#F3E9DA" stroke-width="1"/>
      <line x1="34" y1="504" x2="356" y2="504" stroke="#F3E9DA" stroke-width="1"/>
      <line x1="34" y1="535" x2="356" y2="535" stroke="#F3E9DA" stroke-width="1"/>
      <line x1="34" y1="566" x2="356" y2="566" stroke="#E8D9C3" stroke-width="1"/>

      <path d="M40 558 C 110 530, 200 498, 282 470 L 282 540 C 200 558, 110 568, 40 575 Z" fill="#CFEBDD" opacity="0.7"/>
      <path d="M40 567 C 110 549, 200 522, 282 505" fill="none" stroke="#9FD8BE" stroke-width="1.6" stroke-dasharray="4 3" opacity="0.9"/>
      <path d="M40 558 C 110 530, 200 498, 282 470" fill="none" stroke="#9FD8BE" stroke-width="2"/>
      <path d="M40 549 C 110 511, 200 474, 282 440" fill="none" stroke="#9FD8BE" stroke-width="1.6" stroke-dasharray="4 3" opacity="0.9"/>

      <path d="M40 564 C 100 540, 170 516, 240 496" fill="none" stroke="#FFD66B" stroke-width="3" stroke-linecap="round"/>
      <circle cx="40" cy="564" r="3" fill="#FFD66B"/>
      <circle cx="110" cy="540" r="3" fill="#FFD66B"/>
      <circle cx="170" cy="516" r="3" fill="#FFD66B"/>
      <circle cx="240" cy="496" r="4.5" fill="#FFD66B" stroke="#FFFFFF" stroke-width="2"/>
      <circle cx="240" cy="496" r="6.5" fill="none" stroke="#FFD66B" stroke-width="1.4" opacity="0.5"/>

      <line x1="282" y1="430" x2="282" y2="580" stroke="#E8D9C3" stroke-width="1.4" stroke-dasharray="3 3"/>
      <rect x="248" y="430" width="68" height="16" rx="8" fill="#F3E9DA"/>
      <text x="282" y="442" font-family="system-ui, sans-serif" font-size="10.5" font-weight="600" fill="#9A8B7B" text-anchor="middle">만3세</text>
    </g>

    <text x="14" y="294" font-family="system-ui, sans-serif" font-size="10.5" fill="#9A8B7B">0개월</text>
    <text x="248" y="294" font-family="system-ui, sans-serif" font-size="10.5" font-weight="600" fill="#A87C2F">26개월</text>

    <g transform="translate(0,256)">
      <rect x="18" y="0" width="314" height="34" rx="11" fill="#FFF9F0"/>
      <circle cx="33" cy="17" r="6" fill="#CFEBDD"/>
      <path d="M30 17 l2 2 l4 -4.5" stroke="#9FD8BE" stroke-width="1.6" fill="none" stroke-linecap="round"/>
      <text x="46" y="14.5" font-family="system-ui, sans-serif" font-size="11" fill="#6F6557">또래 곡선은 만3세 미만(WHO·한국 2017)까지</text>
      <text x="46" y="27" font-family="system-ui, sans-serif" font-size="11" fill="#6F6557">표시돼요 · 참고용</text>
    </g>
  </g>

  <g transform="translate(20,608)">
    <rect x="0" y="0" width="350" height="132" rx="22" fill="#F3E9DA" filter="url(#softShadow)"/>

    <text x="18" y="28" font-family="system-ui, sans-serif" font-size="13" font-weight="700" fill="#6F6557">또래 백분위</text>
    <g transform="translate(176,15)">
      <rect x="0" y="0" width="156" height="22" rx="11" fill="#FFFFFF"/>
      <text x="78" y="15" font-family="system-ui, sans-serif" font-size="11.5" font-weight="600" fill="#A87C2F" text-anchor="middle">딱 또래 평균쯤이에요 👶</text>
    </g>

    <text x="18" y="62" font-family="system-ui, sans-serif" font-size="30" font-weight="700" fill="#3D352C">45<tspan font-size="13" font-weight="600" fill="#9A8B7B" dx="2">백분위</tspan></text>
    <text x="18" y="80" font-family="system-ui, sans-serif" font-size="11.5" fill="#6F6557">또래 평균보다 위쪽이에요</text>

    <g transform="translate(18,92)">
      <rect x="0" y="0" width="314" height="9" rx="4.5" fill="#FFFFFF"/>
      <rect x="0" y="0" width="141.3" height="9" rx="4.5" fill="#FFE7A3"/>
      <line x1="157" y1="-4" x2="157" y2="13" stroke="#9A8B7B" stroke-width="1" stroke-dasharray="2 2"/>
      <g transform="translate(141.3,4.5)">
        <circle r="7" fill="#FFD66B" stroke="#FFFFFF" stroke-width="2"/>
        <circle r="9.5" fill="none" stroke="#FFD66B" stroke-width="1.2" opacity="0.5"/>
      </g>
      <text x="0" y="26" font-family="system-ui, sans-serif" font-size="10.5" fill="#9A8B7B">작음 · 아래</text>
      <text x="157" y="26" font-family="system-ui, sans-serif" font-size="10.5" font-weight="600" fill="#A87C2F" text-anchor="middle">또래 평균</text>
      <text x="314" y="26" font-family="system-ui, sans-serif" font-size="10.5" fill="#9A8B7B" text-anchor="end">큼 · 위</text>
    </g>
  </g>

  <g transform="translate(20,742)">
    <text x="0" y="9" font-family="system-ui, sans-serif" font-size="10" fill="#9A8B7B">WHO·한국 2017 성장기준(만3세 미만) · 참고용이며 진료를 대체하지 않아요</text>
  </g>

  <g transform="translate(0,764)">
    <rect x="0" y="0" width="390" height="80" fill="#FFFFFF"/>
    <line x1="0" y1="0" x2="390" y2="0" stroke="#EFE5D6" stroke-width="1"/>

    <g transform="translate(39,16)" fill="#9A8B7B">
      <path d="M0 9 L9 1 L18 9 M2.5 7 V16 H15.5 V7" fill="none" stroke="#9A8B7B" stroke-width="1.6" stroke-linejoin="round" stroke-linecap="round"/>
      <text x="9" y="34" font-family="system-ui, sans-serif" font-size="10.5" text-anchor="middle">홈</text>
    </g>

    <g transform="translate(108,16)" fill="#9A8B7B">
      <rect x="1.5" y="0.5" width="15" height="17" rx="2.5" fill="none" stroke="#9A8B7B" stroke-width="1.6"/>
      <line x1="5" y1="6" x2="13" y2="6" stroke="#9A8B7B" stroke-width="1.6" stroke-linecap="round"/>
      <line x1="5" y1="10" x2="13" y2="10" stroke="#9A8B7B" stroke-width="1.6" stroke-linecap="round"/>
      <text x="9" y="34" font-family="system-ui, sans-serif" font-size="10.5" text-anchor="middle">일기</text>
    </g>

    <g transform="translate(177,16)" fill="#9A8B7B">
      <rect x="0.5" y="1.5" width="17" height="14" rx="2.5" fill="none" stroke="#9A8B7B" stroke-width="1.6"/>
      <circle cx="6" cy="7" r="2" fill="none" stroke="#9A8B7B" stroke-width="1.4"/>
      <path d="M2.5 15 L8 9.5 L12 13 L15 10.5 L17.5 13" fill="none" stroke="#9A8B7B" stroke-width="1.5" stroke-linejoin="round"/>
      <text x="9" y="34" font-family="system-ui, sans-serif" font-size="10.5" text-anchor="middle">사진</text>
    </g>

    <g transform="translate(236,12)">
      <rect x="-15" y="0" width="48" height="26" rx="13" fill="#FFE7A3"/>
      <g transform="translate(0,4)">
        <line x1="1" y1="14" x2="1" y2="9" stroke="#A87C2F" stroke-width="2.2" stroke-linecap="round"/>
        <line x1="6" y1="14" x2="6" y2="5" stroke="#A87C2F" stroke-width="2.2" stroke-linecap="round"/>
        <line x1="11" y1="14" x2="11" y2="1" stroke="#A87C2F" stroke-width="2.2" stroke-linecap="round"/>
        <line x1="16" y1="14" x2="16" y2="7" stroke="#A87C2F" stroke-width="2.2" stroke-linecap="round"/>
      </g>
      <text x="9" y="38" font-family="system-ui, sans-serif" font-size="10.5" font-weight="700" fill="#A87C2F" text-anchor="middle">기록</text>
    </g>

    <g transform="translate(315,16)" fill="#9A8B7B">
      <circle cx="5" cy="5" r="3.2" fill="none" stroke="#9A8B7B" stroke-width="1.6"/>
      <circle cx="14" cy="6" r="2.6" fill="none" stroke="#9A8B7B" stroke-width="1.6"/>
      <path d="M0 17 C0 12, 10 12, 10 17 M9 17 C9 13, 18 13, 18 17" fill="none" stroke="#9A8B7B" stroke-width="1.6" stroke-linecap="round"/>
      <text x="9" y="34" font-family="system-ui, sans-serif" font-size="10.5" text-anchor="middle">가족</text>
    </g>
  </g>
  </g>
</svg>
