<svg viewBox="0 0 390 844" xmlns="http://www.w3.org/2000/svg" role="img" font-family="-apple-system, BlinkMacSystemFont, 'Segoe UI', Roboto, sans-serif">
  <title>아이로그 홈 대시보드 — 하준 26개월</title>
  <desc>인사 헤더, 웰컴 카드, 오늘 기록 요약, 빠른 기록, 오늘의 육아팁, 하단 탭바</desc>
  <defs>
    <filter id="cardShadow" x="-20%" y="-20%" width="140%" height="160%">
      <feDropShadow dx="0" dy="3" stdDeviation="6" flood-color="#3D352C" flood-opacity="0.06"/>
    </filter>
    <filter id="softShadow" x="-30%" y="-30%" width="160%" height="200%">
      <feDropShadow dx="0" dy="2" stdDeviation="4" flood-color="#3D352C" flood-opacity="0.05"/>
    </filter>
    <clipPath id="screenClip"><rect x="0" y="0" width="390" height="844" rx="0"/></clipPath>
  </defs>

  <g clip-path="url(#screenClip)">
    <rect x="0" y="0" width="390" height="844" fill="#FFF9F0"/>

    <text x="24" y="29" font-size="13" font-weight="700" fill="#3D352C" letter-spacing="0.2">9:41</text>
    <g fill="#3D352C">
      <rect x="316" y="18" width="3" height="6" rx="1"/>
      <rect x="321" y="15" width="3" height="9" rx="1"/>
      <rect x="326" y="12" width="3" height="12" rx="1"/>
      <rect x="331" y="9" width="3" height="15" rx="1"/>
    </g>
    <g fill="none" stroke="#3D352C" stroke-width="1.6" stroke-linecap="round">
      <path d="M341 14.5 a9 9 0 0 1 12 0"/>
      <path d="M343.6 18 a5.2 5.2 0 0 1 6.8 0"/>
    </g>
    <circle cx="347" cy="21.6" r="1.3" fill="#3D352C"/>
    <rect x="360" y="11" width="20" height="11" rx="3" fill="none" stroke="#3D352C" stroke-width="1.2"/>
    <rect x="362" y="13" width="13" height="7" rx="1.5" fill="#3D352C"/>
    <rect x="381" y="14.5" width="1.6" height="4" rx="0.8" fill="#3D352C"/>

    <text x="20" y="68" font-size="13" fill="#9A8B7B">2026년 6월 20일 (토) · 좋은 아침이에요</text>
    <text x="20" y="100" font-size="27" font-weight="700" fill="#241E18">오늘의 하준</text>

    <circle cx="356" cy="90" r="22" fill="#FFE7A3"/>
    <circle cx="356" cy="90" r="22" fill="none" stroke="#FFD66B" stroke-width="1.5"/>
    <circle cx="356" cy="85.5" r="7.5" fill="#A87C2F"/>
    <path d="M345 102 a11 9 0 0 1 22 0 Z" fill="#A87C2F"/>

    <g>
      <rect x="20" y="116" width="92" height="26" rx="13" fill="#FFFFFF" stroke="#EFE5D6" stroke-width="1"/>
      <circle cx="35" cy="129" r="3" fill="#FFD66B"/>
      <text x="44" y="133" font-size="12.5" font-weight="600" fill="#6F6557">생후 26개월</text>

      <rect x="120" y="116" width="106" height="26" rx="13" fill="#F3E9DA" stroke="#E8D9C3" stroke-width="1"/>
      <circle cx="135" cy="129" r="3" fill="#9FD8BE"/>
      <text x="144" y="133" font-size="12.5" font-weight="600" fill="#6F6557">보정월령 26개월</text>
    </g>

    <rect x="20" y="156" width="350" height="64" rx="20" fill="#FFFFFF" stroke="#EFE5D6" stroke-width="1" filter="url(#softShadow)"/>
    <circle cx="50" cy="188" r="20" fill="#CFEBDD"/>
    <path d="M50 197 c-7-5-11-9-11-14 a4.6 4.6 0 0 1 8.6-2.3 l2.4 2.6 2.4-2.6 a4.6 4.6 0 0 1 8.6 2.3 c0 5-4 9-11 14 Z" fill="#9FD8BE"/>
    <text x="84" y="183" font-size="11" font-weight="600" fill="#9A8B7B" letter-spacing="0.3">함께한 시간</text>
    <text x="84" y="201" font-size="15.5" font-weight="700" fill="#3D352C">하준이와 함께 26개월을 보내고 있어요</text>

    <rect x="20" y="234" width="350" height="118" rx="22" fill="#FFFFFF" stroke="#EFE5D6" stroke-width="1" filter="url(#cardShadow)"/>
    <text x="40" y="264" font-size="18" font-weight="700" fill="#241E18">오늘 기록</text>
    <text x="350" y="263" font-size="13" font-weight="600" fill="#A87C2F" text-anchor="end">타임라인 ›</text>

    <g>
      <rect x="40" y="280" width="98" height="50" rx="14" fill="#E5DBF0"/>
      <circle cx="62" cy="305" r="12" fill="#FFFFFF" fill-opacity="0.65"/>
      <path d="M58 300 v10 M62 300 v10 M66 300 v10 M62 310 v4" stroke="#6F5A8A" stroke-width="1.4" stroke-linecap="round"/>
      <text x="84" y="301" font-size="11.5" fill="#6F5A8A">식사</text>
      <text x="84" y="318" font-size="16" font-weight="700" fill="#3D352C">2회</text>
    </g>
    <g>
      <rect x="146" y="280" width="98" height="50" rx="14" fill="#CFEBDD"/>
      <circle cx="168" cy="305" r="12" fill="#FFFFFF" fill-opacity="0.65"/>
      <path d="M173 305 a6.5 6.5 0 1 1 -7-7 a5.2 5.2 0 0 0 7 7 Z" fill="#3F8A6E"/>
      <text x="190" y="301" font-size="11.5" fill="#3F8A6E">수면</text>
      <text x="190" y="318" font-size="16" font-weight="700" fill="#3D352C">1회</text>
    </g>
    <g>
      <rect x="252" y="280" width="98" height="50" rx="14" fill="#F8DAD0"/>
      <circle cx="274" cy="305" r="12" fill="#FFFFFF" fill-opacity="0.65"/>
      <path d="M268 308 a6 6 0 0 1 12 0 Z M270 300 h8 l-1.2 2 h-5.6 Z" fill="#C0775F"/>
      <text x="296" y="301" font-size="11.5" fill="#C0775F">배변</text>
      <text x="296" y="318" font-size="16" font-weight="700" fill="#3D352C">0회</text>
    </g>
    <text x="195" y="346" font-size="12.5" fill="#9A8B7B" text-anchor="middle">오늘 3개의 기록을 남겼어요 💛</text>

    <text x="20" y="386" font-size="19" font-weight="700" fill="#241E18">빠른 기록</text>
    <text x="350" y="386" font-size="13" font-weight="600" fill="#9A8B7B" text-anchor="end">항목 편집</text>
    <text x="20" y="406" font-size="13" fill="#9A8B7B">탭 한 번으로 오늘을 남겨요</text>

    <rect x="20" y="420" width="110" height="92" rx="20" fill="#FFFFFF" stroke="#EFE5D6" stroke-width="1" filter="url(#softShadow)"/>
    <circle cx="75" cy="458" r="22" fill="#E5DBF0"/>
    <path d="M69 449 v12 M75 449 v12 M81 449 v12 M75 461 v6" stroke="#6F5A8A" stroke-width="1.8" stroke-linecap="round"/>
    <text x="75" y="498" font-size="14" font-weight="700" fill="#3D352C" text-anchor="middle">식사</text>

    <rect x="140" y="420" width="110" height="92" rx="20" fill="#FFFFFF" stroke="#EFE5D6" stroke-width="1" filter="url(#softShadow)"/>
    <circle cx="195" cy="458" r="22" fill="#CFEBDD"/>
    <path d="M203 459 a9.5 9.5 0 1 1 -10.5-10.2 a7.6 7.6 0 0 0 10.5 10.2 Z" fill="#3F8A6E"/>
    <text x="195" y="498" font-size="14" font-weight="700" fill="#3D352C" text-anchor="middle">수면</text>

    <rect x="260" y="420" width="110" height="92" rx="20" fill="#FFFFFF" stroke="#EFE5D6" stroke-width="1" filter="url(#softShadow)"/>
    <circle cx="315" cy="458" r="22" fill="#F8DAD0"/>
    <path d="M306 462 a9 9 0 0 1 18 0 Z M308 449 h12 l-1.8 3 h-8.4 Z" fill="#C0775F"/>
    <text x="315" y="498" font-size="14" font-weight="700" fill="#3D352C" text-anchor="middle">배변</text>

    <rect x="20" y="528" width="350" height="200" rx="22" fill="#FFE7A3" filter="url(#cardShadow)"/>
    <rect x="20" y="528" width="350" height="200" rx="22" fill="none" stroke="#FFD66B" stroke-width="1"/>

    <circle cx="48" cy="558" r="14" fill="#FFD66B"/>
    <text x="48" y="562" font-size="13" font-weight="700" fill="#A87C2F" text-anchor="middle">팁</text>
    <text x="72" y="556" font-size="18" font-weight="700" fill="#A87C2F">오늘의 육아팁</text>
    <text x="350" y="556" font-size="13" font-weight="600" fill="#A87C2F" text-anchor="end">더보기 ›</text>

    <rect x="36" y="576" width="318" height="108" rx="16" fill="#FFFFFF" fill-opacity="0.92"/>
    <text x="52" y="600" font-size="11.5" font-weight="700" fill="#A87C2F" letter-spacing="0.4">오늘의 놀이 팁</text>
    <text x="52" y="622" font-size="16.5" font-weight="700" fill="#3D352C">두 단어 문장 늘려주기</text>
    <text x="52" y="646" font-size="13" fill="#6F6557">아이가 '물'이라고 하면 '물 주세요'처럼 한 단어</text>
    <text x="52" y="664" font-size="13" fill="#6F6557">더 붙여 들려주세요. 자연스럽게 문장 길이가 늘어요.</text>

    <text x="195" y="710" font-size="10.5" fill="#A87C2F" fill-opacity="0.85" text-anchor="middle">본 내용은 참고용이며 의학적 진단·진료를 대체하지 않습니다.</text>

    <rect x="0" y="764" width="390" height="80" fill="#FFFFFF"/>
    <rect x="0" y="764" width="390" height="1" fill="#EFE5D6"/>

    <rect x="24" y="780" width="46" height="30" rx="15" fill="#FFE7A3"/>
    <path d="M38 794 l9-7 9 7 v9 h-18 Z" fill="none" stroke="#A87C2F" stroke-width="1.8" stroke-linejoin="round"/>
    <rect x="44" y="797" width="6" height="6" fill="#A87C2F"/>
    <text x="47" y="826" font-size="11" font-weight="700" fill="#A87C2F" text-anchor="middle">홈</text>

    <g fill="none" stroke="#9A8B7B" stroke-width="1.8" stroke-linejoin="round" stroke-linecap="round">
      <rect x="111" y="785" width="18" height="20" rx="2.5"/>
      <path d="M115 791 h10 M115 796 h10 M115 801 h6"/>
    </g>
    <text x="120" y="826" font-size="11" font-weight="500" fill="#9A8B7B" text-anchor="middle">일기</text>

    <g fill="none" stroke="#9A8B7B" stroke-width="1.8" stroke-linejoin="round" stroke-linecap="round">
      <rect x="184" y="786" width="20" height="17" rx="3"/>
      <path d="M184 800 l5-5 4 4 4-5 7 6"/>
    </g>
    <circle cx="190" cy="791" r="1.6" fill="#9A8B7B"/>
    <text x="194" y="826" font-size="11" font-weight="500" fill="#9A8B7B" text-anchor="middle">사진</text>

    <g fill="none" stroke="#9A8B7B" stroke-width="1.8" stroke-linejoin="round" stroke-linecap="round">
      <path d="M260 803 v-8 M267 803 v-13 M274 803 v-6"/>
    </g>
    <text x="267" y="826" font-size="11" font-weight="500" fill="#9A8B7B" text-anchor="middle">기록</text>

    <g fill="none" stroke="#9A8B7B" stroke-width="1.8" stroke-linejoin="round" stroke-linecap="round">
      <circle cx="336" cy="790" r="3.6"/>
      <path d="M329 803 a7 7 0 0 1 14 0"/>
    </g>
    <text x="340" y="826" font-size="11" font-weight="500" fill="#9A8B7B" text-anchor="middle">가족</text>

    <rect x="143" y="833" width="104" height="5" rx="2.5" fill="#241E18" fill-opacity="0.18"/>
  </g>
</svg>
