<svg viewBox="0 0 390 844" xmlns="http://www.w3.org/2000/svg" role="img" aria-label="사진첩 화면 목업">
  <defs>
    <filter id="cardShadow" x="-20%" y="-20%" width="140%" height="150%">
      <feDropShadow dx="0" dy="3" stdDeviation="6" flood-color="#3D352C" flood-opacity="0.06"/>
    </filter>
    <filter id="softShadow" x="-30%" y="-30%" width="160%" height="170%">
      <feDropShadow dx="0" dy="2" stdDeviation="4" flood-color="#3D352C" flood-opacity="0.05"/>
    </filter>
    <clipPath id="thumb1"><rect x="20" y="406" width="110" height="110" rx="14"/></clipPath>
    <clipPath id="thumb2"><rect x="140" y="406" width="110" height="110" rx="14"/></clipPath>
    <clipPath id="thumb3"><rect x="260" y="406" width="110" height="110" rx="14"/></clipPath>
    <clipPath id="thumb4"><rect x="20" y="572" width="110" height="110" rx="14"/></clipPath>
    <clipPath id="thumb5"><rect x="140" y="572" width="110" height="110" rx="14"/></clipPath>
    <clipPath id="thumb6"><rect x="20" y="738" width="110" height="110" rx="14"/></clipPath>
    <clipPath id="thumb7"><rect x="140" y="738" width="110" height="110" rx="14"/></clipPath>
    <clipPath id="thumb8"><rect x="260" y="738" width="110" height="110" rx="14"/></clipPath>
    <clipPath id="screenClip"><rect x="0" y="0" width="390" height="844"/></clipPath>
  </defs>

  <g clip-path="url(#screenClip)">
  <!-- Base background -->
  <rect x="0" y="0" width="390" height="844" fill="#FFF9F0"/>

  <!-- ============ STATUS BAR ============ -->
  <text x="20" y="29" font-family="-apple-system, system-ui, sans-serif" font-size="13" font-weight="700" fill="#3D352C">9:41</text>
  <!-- signal -->
  <g fill="#3D352C">
    <rect x="318" y="18" width="3" height="8" rx="1"/>
    <rect x="323" y="15" width="3" height="11" rx="1"/>
    <rect x="328" y="12" width="3" height="14" rx="1"/>
    <rect x="333" y="9" width="3" height="17" rx="1"/>
  </g>
  <!-- wifi -->
  <g fill="none" stroke="#3D352C" stroke-width="1.6" stroke-linecap="round">
    <path d="M343 15.5 a7.5 7.5 0 0 1 11 0"/>
    <path d="M345.6 19 a4 4 0 0 1 5.8 0"/>
  </g>
  <circle cx="348.5" cy="22.5" r="1.2" fill="#3D352C"/>
  <!-- battery -->
  <rect x="360" y="11" width="20" height="11" rx="3" fill="none" stroke="#3D352C" stroke-width="1.2"/>
  <rect x="362" y="13" width="14" height="7" rx="1.5" fill="#3D352C"/>
  <rect x="381" y="14" width="1.6" height="5" rx="0.8" fill="#3D352C"/>

  <!-- ============ HEADER ============ -->
  <text x="20" y="78" font-family="-apple-system, system-ui, sans-serif" font-size="28" font-weight="700" fill="#3D352C">사진첩</text>
  <!-- header right glyph: photo stack icon -->
  <g transform="translate(345,58)">
    <rect x="0" y="3" width="22" height="18" rx="5" fill="#FFFFFF" stroke="#EFE5D6" stroke-width="1"/>
    <circle cx="6.5" cy="9.5" r="2.2" fill="#FFD66B"/>
    <path d="M3 18 l5.5 -6 4 4 3 -3 4.5 5" fill="none" stroke="#9A8B7B" stroke-width="1.4" stroke-linejoin="round" stroke-linecap="round"/>
  </g>
  <text x="20" y="100" font-family="-apple-system, system-ui, sans-serif" font-size="14" fill="#6F6557">3,649장의 추억이 정리됐어요</text>

  <!-- ============ ACTION BUTTONS ============ -->
  <!-- Button 1: 과거 사진 전체 가져오기 (primary) -->
  <g filter="url(#softShadow)">
    <rect x="20" y="118" width="350" height="44" rx="14" fill="#FFD66B"/>
  </g>
  <g transform="translate(36,133)">
    <path d="M7 0 v9 M3 6 l4 3.5 4 -3.5 M0 13 h14" fill="none" stroke="#A87C2F" stroke-width="1.8" stroke-linecap="round" stroke-linejoin="round"/>
  </g>
  <text x="62" y="146" font-family="-apple-system, system-ui, sans-serif" font-size="15" font-weight="700" fill="#A87C2F">과거 사진 전체 가져오기</text>

  <!-- Button 2: 스마트 정리 -->
  <rect x="20" y="170" width="350" height="42" rx="13" fill="#FFFFFF" stroke="#EFE5D6" stroke-width="1"/>
  <g transform="translate(37,184)">
    <path d="M0 8 l8 -8 M5 3 l2 2 M9 1 l3 3 M2 12 l4 -1 -3 -3 -1 4z" fill="none" stroke="#9FD8BE" stroke-width="1.6" stroke-linecap="round" stroke-linejoin="round"/>
    <circle cx="10.5" cy="9.5" r="1.4" fill="#9FD8BE"/>
  </g>
  <text x="60" y="196" font-family="-apple-system, system-ui, sans-serif" font-size="14" font-weight="700" fill="#3D352C">스마트 정리</text>
  <text x="138" y="196" font-family="-apple-system, system-ui, sans-serif" font-size="13" fill="#9A8B7B">비슷한 사진 모으기</text>

  <!-- Button 3: 백업 원본 -->
  <rect x="20" y="220" width="350" height="42" rx="13" fill="#FFFFFF" stroke="#EFE5D6" stroke-width="1"/>
  <g transform="translate(36,235)">
    <path d="M3.5 11 a4 4 0 0 1 0.5 -8 a5 5 0 0 1 9.3 1.2 a3.3 3.3 0 0 1 -0.3 6.8 z" fill="#D6E6F5" stroke="#A8C8EC" stroke-width="1.3" stroke-linejoin="round"/>
  </g>
  <text x="60" y="246" font-family="-apple-system, system-ui, sans-serif" font-size="14" font-weight="700" fill="#3D352C">백업 원본</text>
  <text x="118" y="246" font-family="-apple-system, system-ui, sans-serif" font-size="13" fill="#9A8B7B">앨범·액자용</text>

  <!-- ============ SELECT HINT ============ -->
  <text x="20" y="284" font-family="-apple-system, system-ui, sans-serif" font-size="11" fill="#9A8B7B">사진을 길게 누르면 여러 장을 한 번에 정리할 수 있어요</text>

  <!-- ============ FILTER CHIPS ============ -->
  <!-- 전체 (active) -->
  <rect x="20" y="298" width="52" height="32" rx="16" fill="#FFD66B"/>
  <text x="46" y="318" font-family="-apple-system, system-ui, sans-serif" font-size="13" font-weight="700" fill="#A87C2F" text-anchor="middle">전체</text>
  <!-- 하준 -->
  <rect x="80" y="298" width="56" height="32" rx="16" fill="#F3E9DA" stroke="#E8D9C3" stroke-width="1"/>
  <text x="108" y="318" font-family="-apple-system, system-ui, sans-serif" font-size="13" fill="#6F6557" text-anchor="middle">하준</text>
  <!-- 미분류 -->
  <rect x="144" y="298" width="64" height="32" rx="16" fill="#F3E9DA" stroke="#E8D9C3" stroke-width="1"/>
  <text x="176" y="318" font-family="-apple-system, system-ui, sans-serif" font-size="13" fill="#6F6557" text-anchor="middle">미분류</text>
  <!-- 즐겨찾기 -->
  <rect x="216" y="298" width="92" height="32" rx="16" fill="#F3E9DA" stroke="#E8D9C3" stroke-width="1"/>
  <text x="232" y="318" font-family="-apple-system, system-ui, sans-serif" font-size="13" text-anchor="start">💛</text>
  <text x="252" y="318" font-family="-apple-system, system-ui, sans-serif" font-size="13" fill="#6F6557">즐겨찾기</text>
  <!-- chevron hint for scrollable chips -->
  <path d="M322 308 l5 6 -5 6" fill="none" stroke="#9A8B7B" stroke-width="1.4" stroke-linecap="round" stroke-linejoin="round" opacity="0.5"/>

  <!-- ============ DATE SECTION 1: 오늘 ============ -->
  <text x="20" y="382" font-family="-apple-system, system-ui, sans-serif" font-size="17" font-weight="700" fill="#3D352C">오늘</text>
  <text x="370" y="382" font-family="-apple-system, system-ui, sans-serif" font-size="13" fill="#9A8B7B" text-anchor="end">3장</text>

  <!-- Thumb 1 -->
  <g filter="url(#cardShadow)"><rect x="20" y="406" width="110" height="110" rx="14" fill="#F3E9DA"/></g>
  <g clip-path="url(#thumb1)">
    <rect x="20" y="406" width="110" height="110" fill="#F8DAD0"/>
    <circle cx="50" cy="436" r="14" fill="#FFE7A3"/>
    <path d="M20 500 l24 -30 22 18 18 -16 26 28 v16 h-110z" fill="#E5DBF0"/>
    <path d="M70 516 l20 -22 40 30 v8 h-60z" fill="#CFEBDD" opacity="0.9"/>
  </g>
  <!-- ☁️ backup badge (top-right) -->
  <g transform="translate(108,410)">
    <rect x="0" y="0" width="18" height="18" rx="9" fill="#241E18" opacity="0.55"/>
    <path d="M5 12 a2.6 2.6 0 0 1 0.3 -5.2 a3.3 3.3 0 0 1 6 0.8 a2.1 2.1 0 0 1 -0.2 4.4 z" fill="#FFF9F0"/>
  </g>

  <!-- Thumb 2 -->
  <g filter="url(#cardShadow)"><rect x="140" y="406" width="110" height="110" rx="14" fill="#F3E9DA"/></g>
  <g clip-path="url(#thumb2)">
    <rect x="140" y="406" width="110" height="110" fill="#D6E6F5"/>
    <circle cx="225" cy="438" r="18" fill="#FFE7A3"/>
    <path d="M140 504 l30 -34 26 22 24 -20 30 32 v12 h-140z" fill="#CFEBDD"/>
    <path d="M140 508 l22 -18 28 22 v6 h-50z" fill="#A8C8EC" opacity="0.7"/>
  </g>
  <!-- 💬 comment badge (top-left) -->
  <g transform="translate(146,412)">
    <rect x="0" y="0" width="30" height="18" rx="9" fill="#241E18" opacity="0.55"/>
    <path d="M6 5 h12 a2 2 0 0 1 2 2 v4 a2 2 0 0 1 -2 2 h-7 l-3 3 v-3 h-2 a2 2 0 0 1 -2 -2 v-4 a2 2 0 0 1 2 -2z" fill="#FFF9F0"/>
    <text x="23" y="14" font-family="-apple-system, system-ui, sans-serif" font-size="11" font-weight="700" fill="#FFF9F0">1</text>
  </g>

  <!-- Thumb 3 -->
  <g filter="url(#cardShadow)"><rect x="260" y="406" width="110" height="110" rx="14" fill="#F3E9DA"/></g>
  <g clip-path="url(#thumb3)">
    <rect x="260" y="406" width="110" height="110" fill="#E5DBF0"/>
    <circle cx="345" cy="434" r="13" fill="#FFE7A3"/>
    <path d="M260 502 l26 -28 24 20 22 -18 18 18 v14 h-110z" fill="#F8DAD0"/>
    <path d="M260 510 l18 -14 24 18 v8 h-42z" fill="#CFEBDD" opacity="0.85"/>
  </g>

  <!-- ============ DATE SECTION 2: 어제 ============ -->
  <text x="20" y="548" font-family="-apple-system, system-ui, sans-serif" font-size="17" font-weight="700" fill="#3D352C">어제</text>
  <text x="370" y="548" font-family="-apple-system, system-ui, sans-serif" font-size="13" fill="#9A8B7B" text-anchor="end">2장</text>

  <!-- Thumb 4 -->
  <g filter="url(#cardShadow)"><rect x="20" y="572" width="110" height="110" rx="14" fill="#F3E9DA"/></g>
  <g clip-path="url(#thumb4)">
    <rect x="20" y="572" width="110" height="110" fill="#CFEBDD"/>
    <circle cx="48" cy="600" r="15" fill="#FFE7A3"/>
    <path d="M20 668 l28 -30 24 20 20 -16 38 32 v8 h-130z" fill="#D6E6F5"/>
    <path d="M70 682 l24 -22 36 26 v6 h-60z" fill="#9FD8BE" opacity="0.7"/>
  </g>
  <!-- heart badge (favorite) bottom-right -->
  <g transform="translate(110,662)">
    <rect x="0" y="0" width="18" height="18" rx="9" fill="#241E18" opacity="0.5"/>
    <path d="M9 14 C4 10.5 5 6.5 7.4 6.5 C8.4 6.5 9 7.4 9 7.4 C9 7.4 9.6 6.5 10.6 6.5 C13 6.5 14 10.5 9 14z" fill="#FFD66B"/>
  </g>

  <!-- Thumb 5 -->
  <g filter="url(#cardShadow)"><rect x="140" y="572" width="110" height="110" rx="14" fill="#F3E9DA"/></g>
  <g clip-path="url(#thumb5)">
    <rect x="140" y="572" width="110" height="110" fill="#F8DAD0"/>
    <circle cx="222" cy="602" r="16" fill="#FFE7A3"/>
    <path d="M140 670 l30 -32 24 20 26 -22 30 30 v6 h-140z" fill="#E5DBF0"/>
    <path d="M140 674 l20 -16 28 22 v6 h-48z" fill="#D6E6F5" opacity="0.8"/>
  </g>

  <!-- empty slot 3rd col (subtle dashed) -->
  <rect x="260" y="572" width="110" height="110" rx="14" fill="#FFF9F0" stroke="#EFE5D6" stroke-width="1" stroke-dasharray="4 5"/>
  <path d="M315 615 v24 M303 627 h24" stroke="#E8D9C3" stroke-width="2" stroke-linecap="round"/>

  <!-- ============ DATE SECTION 3: 2주 전 ============ -->
  <text x="20" y="714" font-family="-apple-system, system-ui, sans-serif" font-size="17" font-weight="700" fill="#3D352C">2주 전</text>
  <text x="370" y="714" font-family="-apple-system, system-ui, sans-serif" font-size="13" fill="#9A8B7B" text-anchor="end">4장</text>

  <!-- Thumb 6 -->
  <g filter="url(#cardShadow)"><rect x="20" y="738" width="110" height="110" rx="14" fill="#F3E9DA"/></g>
  <g clip-path="url(#thumb6)">
    <rect x="20" y="738" width="110" height="110" fill="#E5DBF0"/>
    <circle cx="50" cy="768" r="15" fill="#FFE7A3"/>
    <path d="M20 836 l28 -30 24 20 38 -24 v34 h-90z" fill="#CFEBDD"/>
  </g>

  <!-- Thumb 7 -->
  <g filter="url(#cardShadow)"><rect x="140" y="738" width="110" height="110" rx="14" fill="#F3E9DA"/></g>
  <g clip-path="url(#thumb7)">
    <rect x="140" y="738" width="110" height="110" fill="#D6E6F5"/>
    <circle cx="220" cy="766" r="14" fill="#FFE7A3"/>
    <path d="M140 834 l30 -30 26 22 24 -18 30 26 v6 h-140z" fill="#F8DAD0"/>
  </g>

  <!-- Thumb 8 -->
  <g filter="url(#cardShadow)"><rect x="260" y="738" width="110" height="110" rx="14" fill="#F3E9DA"/></g>
  <g clip-path="url(#thumb8)">
    <rect x="260" y="738" width="110" height="110" fill="#CFEBDD"/>
    <circle cx="342" cy="768" r="14" fill="#FFE7A3"/>
    <path d="M260 834 l26 -28 24 20 22 -16 18 16 v8 h-110z" fill="#E5DBF0"/>
  </g>
  <!-- ☁️ backup badge on thumb 8 -->
  <g transform="translate(348,742)">
    <rect x="0" y="0" width="18" height="18" rx="9" fill="#241E18" opacity="0.55"/>
    <path d="M5 12 a2.6 2.6 0 0 1 0.3 -5.2 a3.3 3.3 0 0 1 6 0.8 a2.1 2.1 0 0 1 -0.2 4.4 z" fill="#FFF9F0"/>
  </g>

  <!-- fade scrim above tab bar so grid scrolls under -->
  <rect x="0" y="744" width="390" height="20" fill="#FFF9F0" opacity="0.85"/>

  <!-- ============ TAB BAR ============ -->
  <rect x="0" y="764" width="390" height="80" fill="#FFFFFF"/>
  <line x1="0" y1="764" x2="390" y2="764" stroke="#EFE5D6" stroke-width="1"/>

  <!-- Tab 1: 홈 -->
  <g transform="translate(39,782)">
    <path d="M0 8 l9 -8 9 8 M2 6 v9 h14 v-9" fill="none" stroke="#9A8B7B" stroke-width="1.6" stroke-linecap="round" stroke-linejoin="round"/>
  </g>
  <text x="48" y="816" font-family="-apple-system, system-ui, sans-serif" font-size="11" fill="#9A8B7B" text-anchor="middle">홈</text>

  <!-- Tab 2: 일기 -->
  <g transform="translate(108,781)">
    <rect x="0" y="0" width="16" height="18" rx="3" fill="none" stroke="#9A8B7B" stroke-width="1.6"/>
    <path d="M3.5 5 h9 M3.5 9 h9 M3.5 13 h5" stroke="#9A8B7B" stroke-width="1.4" stroke-linecap="round"/>
  </g>
  <text x="117" y="816" font-family="-apple-system, system-ui, sans-serif" font-size="11" fill="#9A8B7B" text-anchor="middle">일기</text>

  <!-- Tab 3: 사진 (ACTIVE) -->
  <rect x="161" y="776" width="68" height="30" rx="15" fill="#FFE7A3"/>
  <g transform="translate(185,783)">
    <rect x="0" y="2" width="20" height="16" rx="4" fill="none" stroke="#A87C2F" stroke-width="1.7"/>
    <circle cx="5.5" cy="8" r="2" fill="#A87C2F"/>
    <path d="M2 15 l5 -5 4 3 3 -3 4 5" fill="none" stroke="#A87C2F" stroke-width="1.6" stroke-linejoin="round" stroke-linecap="round"/>
  </g>
  <text x="195" y="819" font-family="-apple-system, system-ui, sans-serif" font-size="11" font-weight="700" fill="#A87C2F" text-anchor="middle">사진</text>

  <!-- Tab 4: 기록 -->
  <g transform="translate(265,781)">
    <path d="M1 17 v-7 M6.5 17 v-12 M12 17 v-9 M17 17 v-16" fill="none" stroke="#9A8B7B" stroke-width="1.7" stroke-linecap="round"/>
  </g>
  <text x="274" y="816" font-family="-apple-system, system-ui, sans-serif" font-size="11" fill="#9A8B7B" text-anchor="middle">기록</text>

  <!-- Tab 5: 가족 -->
  <g transform="translate(335,781)">
    <circle cx="6" cy="5" r="3.4" fill="none" stroke="#9A8B7B" stroke-width="1.6"/>
    <circle cx="13.5" cy="6.5" r="2.6" fill="none" stroke="#9A8B7B" stroke-width="1.4"/>
    <path d="M0.5 17 a6 6 0 0 1 11 0 M11.5 17 a5 5 0 0 1 6.5 -4.5" fill="none" stroke="#9A8B7B" stroke-width="1.5" stroke-linecap="round"/>
  </g>
  <text x="344" y="816" font-family="-apple-system, system-ui, sans-serif" font-size="11" fill="#9A8B7B" text-anchor="middle">가족</text>

  <!-- home indicator -->
  <rect x="127" y="832" width="136" height="5" rx="2.5" fill="#E8D9C3"/>
  </g>
</svg>
